<mxfile host="app.diagrams.net" modified="2022-06-05T11:24:28.983Z" agent="5.0 (Windows NT 10.0; Win64; x64) AppleWebKit/537.36 (KHTML, like Gecko) Chrome/100.0.4896.160 YaBrowser/22.5.1.985 Yowser/2.5 Safari/537.36" etag="ofz9O8rZGv32TTR33XVk" version="18.2.1" type="github">
  <diagram id="Q-h0vmE56mfJWEI7V3Gk" name="Page-1">
    <mxGraphModel dx="2500" dy="928" grid="1" gridSize="10" guides="1" tooltips="1" connect="1" arrows="1" fold="1" page="1" pageScale="1" pageWidth="827" pageHeight="1169" math="0" shadow="0">
      <root>
        <mxCell id="0" />
        <mxCell id="1" parent="0" />
        <mxCell id="J_OB5mxTyGGdj_19bsgD-1" value="Генеральный директор" style="rounded=0;whiteSpace=wrap;html=1;" vertex="1" parent="1">
          <mxGeometry x="360" y="80" width="120" height="40" as="geometry" />
        </mxCell>
        <mxCell id="J_OB5mxTyGGdj_19bsgD-2" value="Основная деятельность" style="rounded=0;whiteSpace=wrap;html=1;" vertex="1" parent="1">
          <mxGeometry x="-60" y="160" width="120" height="40" as="geometry" />
        </mxCell>
        <mxCell id="J_OB5mxTyGGdj_19bsgD-3" value="Директор сервиса HeadHunter" style="rounded=0;whiteSpace=wrap;html=1;" vertex="1" parent="1">
          <mxGeometry x="-180" y="240" width="120" height="40" as="geometry" />
        </mxCell>
        <mxCell id="J_OB5mxTyGGdj_19bsgD-4" value="Директор отдела разработок" style="rounded=0;whiteSpace=wrap;html=1;" vertex="1" parent="1">
          <mxGeometry x="60" y="240" width="120" height="40" as="geometry" />
        </mxCell>
        <mxCell id="J_OB5mxTyGGdj_19bsgD-5" value="Отдел формирования проектов" style="rounded=0;whiteSpace=wrap;html=1;" vertex="1" parent="1">
          <mxGeometry x="60" y="320" width="120" height="40" as="geometry" />
        </mxCell>
        <mxCell id="J_OB5mxTyGGdj_19bsgD-6" value="Отдел разработки" style="rounded=0;whiteSpace=wrap;html=1;" vertex="1" parent="1">
          <mxGeometry x="60" y="400" width="120" height="40" as="geometry" />
        </mxCell>
        <mxCell id="J_OB5mxTyGGdj_19bsgD-7" value="Менеджер по оформлению проектов" style="rounded=0;whiteSpace=wrap;html=1;" vertex="1" parent="1">
          <mxGeometry x="60" y="480" width="120" height="40" as="geometry" />
        </mxCell>
        <mxCell id="J_OB5mxTyGGdj_19bsgD-8" value="Отдел сервиса" style="rounded=0;whiteSpace=wrap;html=1;" vertex="1" parent="1">
          <mxGeometry x="-180" y="310" width="120" height="40" as="geometry" />
        </mxCell>
        <mxCell id="J_OB5mxTyGGdj_19bsgD-9" value="Менеджер по работе с компаниями-партнерами" style="rounded=0;whiteSpace=wrap;html=1;" vertex="1" parent="1">
          <mxGeometry x="-180" y="380" width="120" height="50" as="geometry" />
        </mxCell>
        <mxCell id="J_OB5mxTyGGdj_19bsgD-10" value="Менеджер по работе с клиентами" style="rounded=0;whiteSpace=wrap;html=1;" vertex="1" parent="1">
          <mxGeometry x="-180" y="460" width="120" height="50" as="geometry" />
        </mxCell>
        <mxCell id="J_OB5mxTyGGdj_19bsgD-11" value="Модерация сайта" style="rounded=0;whiteSpace=wrap;html=1;" vertex="1" parent="1">
          <mxGeometry x="-180" y="540" width="120" height="50" as="geometry" />
        </mxCell>
        <mxCell id="J_OB5mxTyGGdj_19bsgD-12" value="Технические специалисты" style="rounded=0;whiteSpace=wrap;html=1;" vertex="1" parent="1">
          <mxGeometry x="-180" y="620" width="120" height="50" as="geometry" />
        </mxCell>
        <mxCell id="J_OB5mxTyGGdj_19bsgD-13" value="" style="endArrow=classic;html=1;rounded=0;exitX=0.5;exitY=1;exitDx=0;exitDy=0;entryX=0.5;entryY=0;entryDx=0;entryDy=0;" edge="1" parent="1" source="J_OB5mxTyGGdj_19bsgD-2" target="J_OB5mxTyGGdj_19bsgD-3">
          <mxGeometry width="50" height="50" relative="1" as="geometry">
            <mxPoint x="390" y="400" as="sourcePoint" />
            <mxPoint x="440" y="350" as="targetPoint" />
            <Array as="points">
              <mxPoint y="220" />
              <mxPoint x="-120" y="220" />
            </Array>
          </mxGeometry>
        </mxCell>
        <mxCell id="J_OB5mxTyGGdj_19bsgD-14" value="" style="endArrow=classic;html=1;rounded=0;exitX=0.5;exitY=1;exitDx=0;exitDy=0;entryX=0.5;entryY=0;entryDx=0;entryDy=0;" edge="1" parent="1" source="J_OB5mxTyGGdj_19bsgD-2" target="J_OB5mxTyGGdj_19bsgD-4">
          <mxGeometry width="50" height="50" relative="1" as="geometry">
            <mxPoint x="390" y="400" as="sourcePoint" />
            <mxPoint x="440" y="350" as="targetPoint" />
            <Array as="points">
              <mxPoint y="220" />
              <mxPoint x="120" y="220" />
            </Array>
          </mxGeometry>
        </mxCell>
        <mxCell id="J_OB5mxTyGGdj_19bsgD-15" value="" style="endArrow=classic;html=1;rounded=0;exitX=0;exitY=0.5;exitDx=0;exitDy=0;entryX=0;entryY=0.5;entryDx=0;entryDy=0;" edge="1" parent="1" source="J_OB5mxTyGGdj_19bsgD-4" target="J_OB5mxTyGGdj_19bsgD-5">
          <mxGeometry width="50" height="50" relative="1" as="geometry">
            <mxPoint x="390" y="400" as="sourcePoint" />
            <mxPoint x="440" y="350" as="targetPoint" />
            <Array as="points">
              <mxPoint x="40" y="260" />
              <mxPoint x="40" y="340" />
            </Array>
          </mxGeometry>
        </mxCell>
        <mxCell id="J_OB5mxTyGGdj_19bsgD-16" value="" style="endArrow=classic;html=1;rounded=0;entryX=0;entryY=0.5;entryDx=0;entryDy=0;" edge="1" parent="1" target="J_OB5mxTyGGdj_19bsgD-6">
          <mxGeometry width="50" height="50" relative="1" as="geometry">
            <mxPoint x="40" y="340" as="sourcePoint" />
            <mxPoint x="440" y="350" as="targetPoint" />
            <Array as="points">
              <mxPoint x="40" y="420" />
            </Array>
          </mxGeometry>
        </mxCell>
        <mxCell id="J_OB5mxTyGGdj_19bsgD-17" value="" style="endArrow=classic;html=1;rounded=0;entryX=0;entryY=0.5;entryDx=0;entryDy=0;" edge="1" parent="1" target="J_OB5mxTyGGdj_19bsgD-7">
          <mxGeometry width="50" height="50" relative="1" as="geometry">
            <mxPoint x="40" y="420" as="sourcePoint" />
            <mxPoint x="440" y="350" as="targetPoint" />
            <Array as="points">
              <mxPoint x="40" y="500" />
            </Array>
          </mxGeometry>
        </mxCell>
        <mxCell id="J_OB5mxTyGGdj_19bsgD-18" value="" style="endArrow=classic;html=1;rounded=0;exitX=0;exitY=0.5;exitDx=0;exitDy=0;entryX=0;entryY=0.5;entryDx=0;entryDy=0;" edge="1" parent="1" source="J_OB5mxTyGGdj_19bsgD-3" target="J_OB5mxTyGGdj_19bsgD-8">
          <mxGeometry width="50" height="50" relative="1" as="geometry">
            <mxPoint x="390" y="400" as="sourcePoint" />
            <mxPoint x="440" y="350" as="targetPoint" />
            <Array as="points">
              <mxPoint x="-200" y="260" />
              <mxPoint x="-200" y="330" />
            </Array>
          </mxGeometry>
        </mxCell>
        <mxCell id="J_OB5mxTyGGdj_19bsgD-19" value="" style="endArrow=classic;html=1;rounded=0;entryX=0;entryY=0.5;entryDx=0;entryDy=0;" edge="1" parent="1" target="J_OB5mxTyGGdj_19bsgD-9">
          <mxGeometry width="50" height="50" relative="1" as="geometry">
            <mxPoint x="-200" y="330" as="sourcePoint" />
            <mxPoint x="440" y="350" as="targetPoint" />
            <Array as="points">
              <mxPoint x="-200" y="405" />
            </Array>
          </mxGeometry>
        </mxCell>
        <mxCell id="J_OB5mxTyGGdj_19bsgD-20" value="" style="endArrow=classic;html=1;rounded=0;entryX=0;entryY=0.5;entryDx=0;entryDy=0;" edge="1" parent="1" target="J_OB5mxTyGGdj_19bsgD-10">
          <mxGeometry width="50" height="50" relative="1" as="geometry">
            <mxPoint x="-200" y="400" as="sourcePoint" />
            <mxPoint x="440" y="350" as="targetPoint" />
            <Array as="points">
              <mxPoint x="-200" y="485" />
            </Array>
          </mxGeometry>
        </mxCell>
        <mxCell id="J_OB5mxTyGGdj_19bsgD-21" value="" style="endArrow=classic;html=1;rounded=0;entryX=0;entryY=0.5;entryDx=0;entryDy=0;" edge="1" parent="1" target="J_OB5mxTyGGdj_19bsgD-11">
          <mxGeometry width="50" height="50" relative="1" as="geometry">
            <mxPoint x="-200" y="480" as="sourcePoint" />
            <mxPoint x="440" y="350" as="targetPoint" />
            <Array as="points">
              <mxPoint x="-200" y="565" />
            </Array>
          </mxGeometry>
        </mxCell>
        <mxCell id="J_OB5mxTyGGdj_19bsgD-22" value="" style="endArrow=classic;html=1;rounded=0;entryX=0;entryY=0.5;entryDx=0;entryDy=0;" edge="1" parent="1" target="J_OB5mxTyGGdj_19bsgD-12">
          <mxGeometry width="50" height="50" relative="1" as="geometry">
            <mxPoint x="-200" y="560" as="sourcePoint" />
            <mxPoint x="440" y="350" as="targetPoint" />
            <Array as="points">
              <mxPoint x="-200" y="645" />
            </Array>
          </mxGeometry>
        </mxCell>
        <mxCell id="J_OB5mxTyGGdj_19bsgD-23" value="" style="endArrow=classic;html=1;rounded=0;exitX=0.5;exitY=1;exitDx=0;exitDy=0;entryX=0.5;entryY=0;entryDx=0;entryDy=0;" edge="1" parent="1" source="J_OB5mxTyGGdj_19bsgD-1" target="J_OB5mxTyGGdj_19bsgD-2">
          <mxGeometry width="50" height="50" relative="1" as="geometry">
            <mxPoint x="390" y="400" as="sourcePoint" />
            <mxPoint x="440" y="350" as="targetPoint" />
            <Array as="points">
              <mxPoint x="420" y="140" />
              <mxPoint y="140" />
            </Array>
          </mxGeometry>
        </mxCell>
        <mxCell id="J_OB5mxTyGGdj_19bsgD-24" value="Отдел инвистиций" style="rounded=0;whiteSpace=wrap;html=1;" vertex="1" parent="1">
          <mxGeometry x="360" y="160" width="120" height="40" as="geometry" />
        </mxCell>
        <mxCell id="J_OB5mxTyGGdj_19bsgD-25" value="Директор отдела инвистиций" style="rounded=0;whiteSpace=wrap;html=1;" vertex="1" parent="1">
          <mxGeometry x="360" y="240" width="120" height="40" as="geometry" />
        </mxCell>
        <mxCell id="J_OB5mxTyGGdj_19bsgD-26" value="Менеджер отдела инвистиций" style="rounded=0;whiteSpace=wrap;html=1;" vertex="1" parent="1">
          <mxGeometry x="360" y="320" width="120" height="40" as="geometry" />
        </mxCell>
        <mxCell id="J_OB5mxTyGGdj_19bsgD-27" value="Топ-менеджер" style="rounded=0;whiteSpace=wrap;html=1;" vertex="1" parent="1">
          <mxGeometry x="360" y="400" width="120" height="40" as="geometry" />
        </mxCell>
        <mxCell id="J_OB5mxTyGGdj_19bsgD-28" value="Бухгалтер отдела инвистиций" style="rounded=0;whiteSpace=wrap;html=1;" vertex="1" parent="1">
          <mxGeometry x="360" y="480" width="120" height="40" as="geometry" />
        </mxCell>
        <mxCell id="J_OB5mxTyGGdj_19bsgD-29" value="" style="endArrow=classic;html=1;rounded=0;exitX=0.5;exitY=1;exitDx=0;exitDy=0;entryX=0.5;entryY=0;entryDx=0;entryDy=0;" edge="1" parent="1" source="J_OB5mxTyGGdj_19bsgD-24" target="J_OB5mxTyGGdj_19bsgD-25">
          <mxGeometry width="50" height="50" relative="1" as="geometry">
            <mxPoint x="390" y="400" as="sourcePoint" />
            <mxPoint x="440" y="350" as="targetPoint" />
          </mxGeometry>
        </mxCell>
        <mxCell id="J_OB5mxTyGGdj_19bsgD-30" value="" style="endArrow=classic;html=1;rounded=0;entryX=0.5;entryY=0;entryDx=0;entryDy=0;" edge="1" parent="1" target="J_OB5mxTyGGdj_19bsgD-24">
          <mxGeometry width="50" height="50" relative="1" as="geometry">
            <mxPoint x="420" y="140" as="sourcePoint" />
            <mxPoint x="440" y="350" as="targetPoint" />
          </mxGeometry>
        </mxCell>
        <mxCell id="J_OB5mxTyGGdj_19bsgD-31" value="" style="endArrow=classic;html=1;rounded=0;exitX=0;exitY=0.5;exitDx=0;exitDy=0;entryX=0;entryY=0.5;entryDx=0;entryDy=0;" edge="1" parent="1" source="J_OB5mxTyGGdj_19bsgD-25" target="J_OB5mxTyGGdj_19bsgD-26">
          <mxGeometry width="50" height="50" relative="1" as="geometry">
            <mxPoint x="390" y="400" as="sourcePoint" />
            <mxPoint x="440" y="350" as="targetPoint" />
            <Array as="points">
              <mxPoint x="340" y="260" />
              <mxPoint x="340" y="340" />
            </Array>
          </mxGeometry>
        </mxCell>
        <mxCell id="J_OB5mxTyGGdj_19bsgD-32" value="" style="endArrow=classic;html=1;rounded=0;entryX=0;entryY=0.5;entryDx=0;entryDy=0;" edge="1" parent="1" target="J_OB5mxTyGGdj_19bsgD-27">
          <mxGeometry width="50" height="50" relative="1" as="geometry">
            <mxPoint x="340" y="340" as="sourcePoint" />
            <mxPoint x="440" y="350" as="targetPoint" />
            <Array as="points">
              <mxPoint x="340" y="420" />
            </Array>
          </mxGeometry>
        </mxCell>
        <mxCell id="J_OB5mxTyGGdj_19bsgD-33" value="" style="endArrow=classic;html=1;rounded=0;entryX=0;entryY=0.5;entryDx=0;entryDy=0;" edge="1" parent="1" target="J_OB5mxTyGGdj_19bsgD-28">
          <mxGeometry width="50" height="50" relative="1" as="geometry">
            <mxPoint x="340" y="420" as="sourcePoint" />
            <mxPoint x="440" y="350" as="targetPoint" />
            <Array as="points">
              <mxPoint x="340" y="500" />
            </Array>
          </mxGeometry>
        </mxCell>
        <mxCell id="J_OB5mxTyGGdj_19bsgD-34" value="Административный отдел" style="rounded=0;whiteSpace=wrap;html=1;" vertex="1" parent="1">
          <mxGeometry x="560" y="160" width="120" height="40" as="geometry" />
        </mxCell>
        <mxCell id="J_OB5mxTyGGdj_19bsgD-35" value="менеджер по персоналу" style="rounded=0;whiteSpace=wrap;html=1;" vertex="1" parent="1">
          <mxGeometry x="580" y="240" width="120" height="40" as="geometry" />
        </mxCell>
        <mxCell id="J_OB5mxTyGGdj_19bsgD-36" value="Менеджер по маркетингу и рекламе" style="rounded=0;whiteSpace=wrap;html=1;" vertex="1" parent="1">
          <mxGeometry x="580" y="320" width="120" height="40" as="geometry" />
        </mxCell>
        <mxCell id="J_OB5mxTyGGdj_19bsgD-37" value="Инженер-программист" style="rounded=0;whiteSpace=wrap;html=1;" vertex="1" parent="1">
          <mxGeometry x="580" y="400" width="120" height="40" as="geometry" />
        </mxCell>
        <mxCell id="J_OB5mxTyGGdj_19bsgD-38" value="" style="endArrow=classic;html=1;rounded=0;entryX=0.5;entryY=0;entryDx=0;entryDy=0;" edge="1" parent="1" target="J_OB5mxTyGGdj_19bsgD-34">
          <mxGeometry width="50" height="50" relative="1" as="geometry">
            <mxPoint x="420" y="140" as="sourcePoint" />
            <mxPoint x="440" y="340" as="targetPoint" />
            <Array as="points">
              <mxPoint x="620" y="140" />
            </Array>
          </mxGeometry>
        </mxCell>
        <mxCell id="J_OB5mxTyGGdj_19bsgD-39" value="" style="endArrow=classic;html=1;rounded=0;exitX=0;exitY=1;exitDx=0;exitDy=0;entryX=0;entryY=0.5;entryDx=0;entryDy=0;" edge="1" parent="1" source="J_OB5mxTyGGdj_19bsgD-34" target="J_OB5mxTyGGdj_19bsgD-35">
          <mxGeometry width="50" height="50" relative="1" as="geometry">
            <mxPoint x="390" y="390" as="sourcePoint" />
            <mxPoint x="440" y="340" as="targetPoint" />
            <Array as="points">
              <mxPoint x="560" y="260" />
            </Array>
          </mxGeometry>
        </mxCell>
        <mxCell id="J_OB5mxTyGGdj_19bsgD-40" value="" style="endArrow=classic;html=1;rounded=0;entryX=0;entryY=0.5;entryDx=0;entryDy=0;" edge="1" parent="1" target="J_OB5mxTyGGdj_19bsgD-36">
          <mxGeometry width="50" height="50" relative="1" as="geometry">
            <mxPoint x="560" y="260" as="sourcePoint" />
            <mxPoint x="440" y="340" as="targetPoint" />
            <Array as="points">
              <mxPoint x="560" y="340" />
            </Array>
          </mxGeometry>
        </mxCell>
        <mxCell id="J_OB5mxTyGGdj_19bsgD-41" value="" style="endArrow=classic;html=1;rounded=0;entryX=0;entryY=0.5;entryDx=0;entryDy=0;" edge="1" parent="1" target="J_OB5mxTyGGdj_19bsgD-37">
          <mxGeometry width="50" height="50" relative="1" as="geometry">
            <mxPoint x="560" y="340" as="sourcePoint" />
            <mxPoint x="440" y="340" as="targetPoint" />
            <Array as="points">
              <mxPoint x="560" y="420" />
            </Array>
          </mxGeometry>
        </mxCell>
        <mxCell id="J_OB5mxTyGGdj_19bsgD-42" value="Финансовый отдел" style="rounded=0;whiteSpace=wrap;html=1;" vertex="1" parent="1">
          <mxGeometry x="790" y="160" width="120" height="40" as="geometry" />
        </mxCell>
        <mxCell id="J_OB5mxTyGGdj_19bsgD-43" value="" style="endArrow=classic;html=1;rounded=0;entryX=0.5;entryY=0;entryDx=0;entryDy=0;" edge="1" parent="1" target="J_OB5mxTyGGdj_19bsgD-42">
          <mxGeometry width="50" height="50" relative="1" as="geometry">
            <mxPoint x="620" y="140" as="sourcePoint" />
            <mxPoint x="440" y="340" as="targetPoint" />
            <Array as="points">
              <mxPoint x="850" y="140" />
            </Array>
          </mxGeometry>
        </mxCell>
        <mxCell id="J_OB5mxTyGGdj_19bsgD-45" value="Главный бухгалтер" style="rounded=0;whiteSpace=wrap;html=1;" vertex="1" parent="1">
          <mxGeometry x="810" y="240" width="120" height="40" as="geometry" />
        </mxCell>
        <mxCell id="J_OB5mxTyGGdj_19bsgD-46" value="Экономист" style="rounded=0;whiteSpace=wrap;html=1;" vertex="1" parent="1">
          <mxGeometry x="810" y="320" width="120" height="40" as="geometry" />
        </mxCell>
        <mxCell id="J_OB5mxTyGGdj_19bsgD-49" value="" style="endArrow=classic;html=1;rounded=0;entryX=0;entryY=0.5;entryDx=0;entryDy=0;exitX=0;exitY=1;exitDx=0;exitDy=0;" edge="1" parent="1" source="J_OB5mxTyGGdj_19bsgD-42" target="J_OB5mxTyGGdj_19bsgD-45">
          <mxGeometry width="50" height="50" relative="1" as="geometry">
            <mxPoint x="390" y="420" as="sourcePoint" />
            <mxPoint x="440" y="370" as="targetPoint" />
            <Array as="points">
              <mxPoint x="790" y="260" />
            </Array>
          </mxGeometry>
        </mxCell>
        <mxCell id="J_OB5mxTyGGdj_19bsgD-50" value="" style="endArrow=classic;html=1;rounded=0;entryX=0;entryY=0.5;entryDx=0;entryDy=0;" edge="1" parent="1" target="J_OB5mxTyGGdj_19bsgD-46">
          <mxGeometry width="50" height="50" relative="1" as="geometry">
            <mxPoint x="790" y="260" as="sourcePoint" />
            <mxPoint x="440" y="370" as="targetPoint" />
            <Array as="points">
              <mxPoint x="790" y="340" />
            </Array>
          </mxGeometry>
        </mxCell>
        <mxCell id="J_OB5mxTyGGdj_19bsgD-52" value="Хозяйственный отдел" style="rounded=0;whiteSpace=wrap;html=1;" vertex="1" parent="1">
          <mxGeometry x="1020" y="160" width="120" height="40" as="geometry" />
        </mxCell>
        <mxCell id="J_OB5mxTyGGdj_19bsgD-53" value="" style="endArrow=classic;html=1;rounded=0;entryX=0.5;entryY=0;entryDx=0;entryDy=0;" edge="1" parent="1" target="J_OB5mxTyGGdj_19bsgD-52">
          <mxGeometry width="50" height="50" relative="1" as="geometry">
            <mxPoint x="850" y="140" as="sourcePoint" />
            <mxPoint x="1190" y="360" as="targetPoint" />
            <Array as="points">
              <mxPoint x="1080" y="140" />
            </Array>
          </mxGeometry>
        </mxCell>
        <mxCell id="J_OB5mxTyGGdj_19bsgD-54" value="Охранник" style="rounded=0;whiteSpace=wrap;html=1;" vertex="1" parent="1">
          <mxGeometry x="1040" y="240" width="120" height="40" as="geometry" />
        </mxCell>
        <mxCell id="J_OB5mxTyGGdj_19bsgD-55" value="Уборщик" style="rounded=0;whiteSpace=wrap;html=1;" vertex="1" parent="1">
          <mxGeometry x="1040" y="320" width="120" height="40" as="geometry" />
        </mxCell>
        <mxCell id="J_OB5mxTyGGdj_19bsgD-56" value="" style="endArrow=classic;html=1;rounded=0;exitX=0;exitY=1;exitDx=0;exitDy=0;entryX=0;entryY=0.5;entryDx=0;entryDy=0;" edge="1" parent="1" source="J_OB5mxTyGGdj_19bsgD-52" target="J_OB5mxTyGGdj_19bsgD-54">
          <mxGeometry width="50" height="50" relative="1" as="geometry">
            <mxPoint x="1140" y="410" as="sourcePoint" />
            <mxPoint x="1190" y="360" as="targetPoint" />
            <Array as="points">
              <mxPoint x="1020" y="260" />
            </Array>
          </mxGeometry>
        </mxCell>
        <mxCell id="J_OB5mxTyGGdj_19bsgD-57" value="" style="endArrow=classic;html=1;rounded=0;entryX=0;entryY=0.5;entryDx=0;entryDy=0;" edge="1" parent="1" target="J_OB5mxTyGGdj_19bsgD-55">
          <mxGeometry width="50" height="50" relative="1" as="geometry">
            <mxPoint x="1020" y="260" as="sourcePoint" />
            <mxPoint x="1190" y="360" as="targetPoint" />
            <Array as="points">
              <mxPoint x="1020" y="340" />
            </Array>
          </mxGeometry>
        </mxCell>
        <mxCell id="J_OB5mxTyGGdj_19bsgD-58" value="Техник" style="rounded=0;whiteSpace=wrap;html=1;" vertex="1" parent="1">
          <mxGeometry x="1040" y="400" width="120" height="40" as="geometry" />
        </mxCell>
        <mxCell id="J_OB5mxTyGGdj_19bsgD-59" value="" style="endArrow=classic;html=1;rounded=0;entryX=0;entryY=0.5;entryDx=0;entryDy=0;" edge="1" parent="1" target="J_OB5mxTyGGdj_19bsgD-58">
          <mxGeometry width="50" height="50" relative="1" as="geometry">
            <mxPoint x="1020" y="340" as="sourcePoint" />
            <mxPoint x="1190" y="360" as="targetPoint" />
            <Array as="points">
              <mxPoint x="1020" y="420" />
            </Array>
          </mxGeometry>
        </mxCell>
        <mxCell id="J_OB5mxTyGGdj_19bsgD-60" value="Генеральный директор" style="rounded=0;whiteSpace=wrap;html=1;fillColor=#f8cecc;strokeColor=#b85450;" vertex="1" parent="1">
          <mxGeometry x="450" y="780" width="120" height="40" as="geometry" />
        </mxCell>
        <mxCell id="J_OB5mxTyGGdj_19bsgD-61" value="Основная деятельность" style="rounded=0;whiteSpace=wrap;html=1;fillColor=#f8cecc;strokeColor=#b85450;" vertex="1" parent="1">
          <mxGeometry x="160" y="860" width="120" height="40" as="geometry" />
        </mxCell>
        <mxCell id="J_OB5mxTyGGdj_19bsgD-62" value="Директор сервиса HeadHunter" style="rounded=0;whiteSpace=wrap;html=1;fillColor=#f8cecc;strokeColor=#b85450;" vertex="1" parent="1">
          <mxGeometry x="40" y="940" width="120" height="40" as="geometry" />
        </mxCell>
        <mxCell id="J_OB5mxTyGGdj_19bsgD-63" value="Директор отдела разработок" style="rounded=0;whiteSpace=wrap;html=1;fillColor=#f8cecc;strokeColor=#b85450;" vertex="1" parent="1">
          <mxGeometry x="280" y="940" width="120" height="40" as="geometry" />
        </mxCell>
        <mxCell id="J_OB5mxTyGGdj_19bsgD-64" value="Менеджер по оформлению проектов" style="rounded=0;whiteSpace=wrap;html=1;fillColor=#f8cecc;strokeColor=#b85450;" vertex="1" parent="1">
          <mxGeometry x="280" y="1010" width="120" height="40" as="geometry" />
        </mxCell>
        <mxCell id="J_OB5mxTyGGdj_19bsgD-65" value="" style="endArrow=classic;html=1;rounded=0;exitX=0.5;exitY=1;exitDx=0;exitDy=0;entryX=0.5;entryY=0;entryDx=0;entryDy=0;fillColor=#f8cecc;strokeColor=#b85450;" edge="1" parent="1" source="J_OB5mxTyGGdj_19bsgD-60" target="J_OB5mxTyGGdj_19bsgD-61">
          <mxGeometry width="50" height="50" relative="1" as="geometry">
            <mxPoint x="480" y="1100" as="sourcePoint" />
            <mxPoint x="530" y="1050" as="targetPoint" />
            <Array as="points">
              <mxPoint x="510" y="840" />
              <mxPoint x="220" y="840" />
            </Array>
          </mxGeometry>
        </mxCell>
        <mxCell id="J_OB5mxTyGGdj_19bsgD-66" value="Отдел инвистиций" style="rounded=0;whiteSpace=wrap;html=1;fillColor=#f8cecc;strokeColor=#b85450;" vertex="1" parent="1">
          <mxGeometry x="450" y="860" width="120" height="40" as="geometry" />
        </mxCell>
        <mxCell id="J_OB5mxTyGGdj_19bsgD-67" value="Директор отдела инвистиций" style="rounded=0;whiteSpace=wrap;html=1;fillColor=#f8cecc;strokeColor=#b85450;" vertex="1" parent="1">
          <mxGeometry x="450" y="940" width="120" height="40" as="geometry" />
        </mxCell>
        <mxCell id="J_OB5mxTyGGdj_19bsgD-68" value="Административный отдел" style="rounded=0;whiteSpace=wrap;html=1;fillColor=#f8cecc;strokeColor=#b85450;" vertex="1" parent="1">
          <mxGeometry x="650" y="860" width="120" height="40" as="geometry" />
        </mxCell>
        <mxCell id="J_OB5mxTyGGdj_19bsgD-69" value="менеджер по персоналу" style="rounded=0;whiteSpace=wrap;html=1;fillColor=#f8cecc;strokeColor=#b85450;" vertex="1" parent="1">
          <mxGeometry x="670" y="940" width="120" height="40" as="geometry" />
        </mxCell>
        <mxCell id="J_OB5mxTyGGdj_19bsgD-70" value="Финансовый отдел" style="rounded=0;whiteSpace=wrap;html=1;fillColor=#f8cecc;strokeColor=#b85450;" vertex="1" parent="1">
          <mxGeometry x="827" y="860" width="120" height="40" as="geometry" />
        </mxCell>
        <mxCell id="J_OB5mxTyGGdj_19bsgD-71" value="Главный бухгалтер" style="rounded=0;whiteSpace=wrap;html=1;fillColor=#f8cecc;strokeColor=#b85450;" vertex="1" parent="1">
          <mxGeometry x="847" y="940" width="120" height="40" as="geometry" />
        </mxCell>
        <mxCell id="J_OB5mxTyGGdj_19bsgD-72" value="" style="endArrow=classic;html=1;rounded=0;exitX=0.5;exitY=1;exitDx=0;exitDy=0;entryX=0.5;entryY=0;entryDx=0;entryDy=0;fillColor=#f8cecc;strokeColor=#b85450;" edge="1" parent="1" source="J_OB5mxTyGGdj_19bsgD-61" target="J_OB5mxTyGGdj_19bsgD-63">
          <mxGeometry width="50" height="50" relative="1" as="geometry">
            <mxPoint x="670" y="1030" as="sourcePoint" />
            <mxPoint x="720" y="980" as="targetPoint" />
            <Array as="points">
              <mxPoint x="220" y="920" />
              <mxPoint x="340" y="920" />
            </Array>
          </mxGeometry>
        </mxCell>
        <mxCell id="J_OB5mxTyGGdj_19bsgD-73" value="" style="endArrow=classic;html=1;rounded=0;entryX=0.5;entryY=0;entryDx=0;entryDy=0;fillColor=#f8cecc;strokeColor=#b85450;" edge="1" parent="1" target="J_OB5mxTyGGdj_19bsgD-62">
          <mxGeometry width="50" height="50" relative="1" as="geometry">
            <mxPoint x="220" y="920" as="sourcePoint" />
            <mxPoint x="720" y="980" as="targetPoint" />
            <Array as="points">
              <mxPoint x="100" y="920" />
            </Array>
          </mxGeometry>
        </mxCell>
        <mxCell id="J_OB5mxTyGGdj_19bsgD-74" value="" style="endArrow=classic;html=1;rounded=0;exitX=0.5;exitY=1;exitDx=0;exitDy=0;entryX=0.5;entryY=0;entryDx=0;entryDy=0;fillColor=#f8cecc;strokeColor=#b85450;" edge="1" parent="1" source="J_OB5mxTyGGdj_19bsgD-63" target="J_OB5mxTyGGdj_19bsgD-64">
          <mxGeometry width="50" height="50" relative="1" as="geometry">
            <mxPoint x="670" y="1030" as="sourcePoint" />
            <mxPoint x="720" y="980" as="targetPoint" />
          </mxGeometry>
        </mxCell>
        <mxCell id="J_OB5mxTyGGdj_19bsgD-75" value="Менеджер по работе с компаниями-партнерами" style="rounded=0;whiteSpace=wrap;html=1;fillColor=#f8cecc;strokeColor=#b85450;" vertex="1" parent="1">
          <mxGeometry x="40" y="1010" width="120" height="50" as="geometry" />
        </mxCell>
        <mxCell id="J_OB5mxTyGGdj_19bsgD-76" value="" style="endArrow=classic;html=1;rounded=0;exitX=0.5;exitY=1;exitDx=0;exitDy=0;entryX=0.5;entryY=0;entryDx=0;entryDy=0;fillColor=#f8cecc;strokeColor=#b85450;" edge="1" parent="1" source="J_OB5mxTyGGdj_19bsgD-62" target="J_OB5mxTyGGdj_19bsgD-75">
          <mxGeometry width="50" height="50" relative="1" as="geometry">
            <mxPoint x="670" y="600" as="sourcePoint" />
            <mxPoint x="720" y="550" as="targetPoint" />
          </mxGeometry>
        </mxCell>
        <mxCell id="J_OB5mxTyGGdj_19bsgD-77" value="" style="endArrow=classic;html=1;rounded=0;entryX=0.5;entryY=0;entryDx=0;entryDy=0;fillColor=#f8cecc;strokeColor=#b85450;" edge="1" parent="1" target="J_OB5mxTyGGdj_19bsgD-70">
          <mxGeometry width="50" height="50" relative="1" as="geometry">
            <mxPoint x="510" y="840" as="sourcePoint" />
            <mxPoint x="590" y="840" as="targetPoint" />
            <Array as="points">
              <mxPoint x="887" y="840" />
            </Array>
          </mxGeometry>
        </mxCell>
        <mxCell id="J_OB5mxTyGGdj_19bsgD-78" value="" style="endArrow=classic;html=1;rounded=0;entryX=0.5;entryY=0;entryDx=0;entryDy=0;fillColor=#f8cecc;strokeColor=#b85450;" edge="1" parent="1" target="J_OB5mxTyGGdj_19bsgD-66">
          <mxGeometry width="50" height="50" relative="1" as="geometry">
            <mxPoint x="510" y="840" as="sourcePoint" />
            <mxPoint x="590" y="840" as="targetPoint" />
          </mxGeometry>
        </mxCell>
        <mxCell id="J_OB5mxTyGGdj_19bsgD-79" value="" style="endArrow=classic;html=1;rounded=0;entryX=0.5;entryY=0;entryDx=0;entryDy=0;fillColor=#f8cecc;strokeColor=#b85450;" edge="1" parent="1" target="J_OB5mxTyGGdj_19bsgD-68">
          <mxGeometry width="50" height="50" relative="1" as="geometry">
            <mxPoint x="710" y="840" as="sourcePoint" />
            <mxPoint x="590" y="840" as="targetPoint" />
          </mxGeometry>
        </mxCell>
        <mxCell id="J_OB5mxTyGGdj_19bsgD-80" value="" style="endArrow=classic;html=1;rounded=0;exitX=0.5;exitY=1;exitDx=0;exitDy=0;entryX=0.5;entryY=0;entryDx=0;entryDy=0;fillColor=#f8cecc;strokeColor=#b85450;" edge="1" parent="1" source="J_OB5mxTyGGdj_19bsgD-66" target="J_OB5mxTyGGdj_19bsgD-67">
          <mxGeometry width="50" height="50" relative="1" as="geometry">
            <mxPoint x="540" y="1030" as="sourcePoint" />
            <mxPoint x="590" y="980" as="targetPoint" />
          </mxGeometry>
        </mxCell>
        <mxCell id="J_OB5mxTyGGdj_19bsgD-81" value="" style="endArrow=classic;html=1;rounded=0;exitX=0;exitY=1;exitDx=0;exitDy=0;entryX=0;entryY=0.5;entryDx=0;entryDy=0;fillColor=#f8cecc;strokeColor=#b85450;" edge="1" parent="1" source="J_OB5mxTyGGdj_19bsgD-68" target="J_OB5mxTyGGdj_19bsgD-69">
          <mxGeometry width="50" height="50" relative="1" as="geometry">
            <mxPoint x="540" y="1030" as="sourcePoint" />
            <mxPoint x="590" y="980" as="targetPoint" />
            <Array as="points">
              <mxPoint x="650" y="960" />
            </Array>
          </mxGeometry>
        </mxCell>
        <mxCell id="J_OB5mxTyGGdj_19bsgD-82" value="" style="endArrow=classic;html=1;rounded=0;exitX=0;exitY=1;exitDx=0;exitDy=0;entryX=0;entryY=0.5;entryDx=0;entryDy=0;fillColor=#f8cecc;strokeColor=#b85450;" edge="1" parent="1" source="J_OB5mxTyGGdj_19bsgD-70" target="J_OB5mxTyGGdj_19bsgD-71">
          <mxGeometry width="50" height="50" relative="1" as="geometry">
            <mxPoint x="487" y="1030" as="sourcePoint" />
            <mxPoint x="537" y="980" as="targetPoint" />
            <Array as="points">
              <mxPoint x="827" y="960" />
            </Array>
          </mxGeometry>
        </mxCell>
        <mxCell id="J_OB5mxTyGGdj_19bsgD-83" value="Организационная структура" style="text;html=1;align=center;verticalAlign=middle;resizable=0;points=[];autosize=1;strokeColor=none;fillColor=none;fontSize=17;" vertex="1" parent="1">
          <mxGeometry x="607" y="785" width="240" height="30" as="geometry" />
        </mxCell>
        <mxCell id="J_OB5mxTyGGdj_19bsgD-85" value="Генеральный директор" style="rounded=0;whiteSpace=wrap;html=1;fillColor=#fff2cc;strokeColor=#d6b656;" vertex="1" parent="1">
          <mxGeometry x="340" y="1190" width="120" height="40" as="geometry" />
        </mxCell>
        <mxCell id="J_OB5mxTyGGdj_19bsgD-86" value="Основная деятельность" style="rounded=0;whiteSpace=wrap;html=1;fillColor=#fff2cc;strokeColor=#d6b656;" vertex="1" parent="1">
          <mxGeometry x="240" y="1270" width="120" height="40" as="geometry" />
        </mxCell>
        <mxCell id="J_OB5mxTyGGdj_19bsgD-87" value="Директор сервиса HeadHunter" style="rounded=0;whiteSpace=wrap;html=1;fillColor=#fff2cc;strokeColor=#d6b656;" vertex="1" parent="1">
          <mxGeometry x="120" y="1350" width="120" height="40" as="geometry" />
        </mxCell>
        <mxCell id="J_OB5mxTyGGdj_19bsgD-88" value="Директор отдела разработок" style="rounded=0;whiteSpace=wrap;html=1;fillColor=#fff2cc;strokeColor=#d6b656;" vertex="1" parent="1">
          <mxGeometry x="360" y="1350" width="120" height="40" as="geometry" />
        </mxCell>
        <mxCell id="J_OB5mxTyGGdj_19bsgD-91" value="Менеджер по оформлению проектов" style="rounded=0;whiteSpace=wrap;html=1;fillColor=#fff2cc;strokeColor=#d6b656;" vertex="1" parent="1">
          <mxGeometry x="380" y="1430" width="120" height="40" as="geometry" />
        </mxCell>
        <mxCell id="J_OB5mxTyGGdj_19bsgD-92" value="Отдел сервиса" style="rounded=0;whiteSpace=wrap;html=1;fillColor=#fff2cc;strokeColor=#d6b656;" vertex="1" parent="1">
          <mxGeometry x="120" y="1420" width="120" height="40" as="geometry" />
        </mxCell>
        <mxCell id="J_OB5mxTyGGdj_19bsgD-93" value="Менеджер по работе с компаниями-партнерами" style="rounded=0;whiteSpace=wrap;html=1;fillColor=#fff2cc;strokeColor=#d6b656;" vertex="1" parent="1">
          <mxGeometry x="120" y="1490" width="120" height="50" as="geometry" />
        </mxCell>
        <mxCell id="J_OB5mxTyGGdj_19bsgD-94" value="Менеджер по работе с клиентами" style="rounded=0;whiteSpace=wrap;html=1;fillColor=#fff2cc;strokeColor=#d6b656;" vertex="1" parent="1">
          <mxGeometry x="120" y="1570" width="120" height="50" as="geometry" />
        </mxCell>
        <mxCell id="J_OB5mxTyGGdj_19bsgD-97" value="" style="endArrow=classic;html=1;rounded=0;exitX=0.5;exitY=1;exitDx=0;exitDy=0;entryX=0.5;entryY=0;entryDx=0;entryDy=0;fillColor=#fff2cc;strokeColor=#d6b656;" edge="1" parent="1" source="J_OB5mxTyGGdj_19bsgD-86" target="J_OB5mxTyGGdj_19bsgD-87">
          <mxGeometry width="50" height="50" relative="1" as="geometry">
            <mxPoint x="690" y="1510" as="sourcePoint" />
            <mxPoint x="740" y="1460" as="targetPoint" />
            <Array as="points">
              <mxPoint x="300" y="1330" />
              <mxPoint x="180" y="1330" />
            </Array>
          </mxGeometry>
        </mxCell>
        <mxCell id="J_OB5mxTyGGdj_19bsgD-98" value="" style="endArrow=classic;html=1;rounded=0;exitX=0.5;exitY=1;exitDx=0;exitDy=0;entryX=0.5;entryY=0;entryDx=0;entryDy=0;fillColor=#fff2cc;strokeColor=#d6b656;" edge="1" parent="1" source="J_OB5mxTyGGdj_19bsgD-86" target="J_OB5mxTyGGdj_19bsgD-88">
          <mxGeometry width="50" height="50" relative="1" as="geometry">
            <mxPoint x="690" y="1510" as="sourcePoint" />
            <mxPoint x="740" y="1460" as="targetPoint" />
            <Array as="points">
              <mxPoint x="300" y="1330" />
              <mxPoint x="420" y="1330" />
            </Array>
          </mxGeometry>
        </mxCell>
        <mxCell id="J_OB5mxTyGGdj_19bsgD-101" value="" style="endArrow=classic;html=1;rounded=0;entryX=0;entryY=0.5;entryDx=0;entryDy=0;exitX=0;exitY=1;exitDx=0;exitDy=0;fillColor=#fff2cc;strokeColor=#d6b656;" edge="1" parent="1" target="J_OB5mxTyGGdj_19bsgD-91" source="J_OB5mxTyGGdj_19bsgD-88">
          <mxGeometry width="50" height="50" relative="1" as="geometry">
            <mxPoint x="340" y="1530" as="sourcePoint" />
            <mxPoint x="740" y="1460" as="targetPoint" />
            <Array as="points">
              <mxPoint x="360" y="1450" />
            </Array>
          </mxGeometry>
        </mxCell>
        <mxCell id="J_OB5mxTyGGdj_19bsgD-102" value="" style="endArrow=classic;html=1;rounded=0;exitX=0;exitY=0.5;exitDx=0;exitDy=0;entryX=0;entryY=0.5;entryDx=0;entryDy=0;fillColor=#fff2cc;strokeColor=#d6b656;" edge="1" parent="1" source="J_OB5mxTyGGdj_19bsgD-87" target="J_OB5mxTyGGdj_19bsgD-92">
          <mxGeometry width="50" height="50" relative="1" as="geometry">
            <mxPoint x="690" y="1510" as="sourcePoint" />
            <mxPoint x="740" y="1460" as="targetPoint" />
            <Array as="points">
              <mxPoint x="100" y="1370" />
              <mxPoint x="100" y="1440" />
            </Array>
          </mxGeometry>
        </mxCell>
        <mxCell id="J_OB5mxTyGGdj_19bsgD-103" value="" style="endArrow=classic;html=1;rounded=0;entryX=0;entryY=0.5;entryDx=0;entryDy=0;fillColor=#fff2cc;strokeColor=#d6b656;" edge="1" parent="1" target="J_OB5mxTyGGdj_19bsgD-93">
          <mxGeometry width="50" height="50" relative="1" as="geometry">
            <mxPoint x="100" y="1440" as="sourcePoint" />
            <mxPoint x="740" y="1460" as="targetPoint" />
            <Array as="points">
              <mxPoint x="100" y="1515" />
            </Array>
          </mxGeometry>
        </mxCell>
        <mxCell id="J_OB5mxTyGGdj_19bsgD-104" value="" style="endArrow=classic;html=1;rounded=0;entryX=0;entryY=0.5;entryDx=0;entryDy=0;fillColor=#fff2cc;strokeColor=#d6b656;" edge="1" parent="1" target="J_OB5mxTyGGdj_19bsgD-94">
          <mxGeometry width="50" height="50" relative="1" as="geometry">
            <mxPoint x="100" y="1510" as="sourcePoint" />
            <mxPoint x="740" y="1460" as="targetPoint" />
            <Array as="points">
              <mxPoint x="100" y="1595" />
            </Array>
          </mxGeometry>
        </mxCell>
        <mxCell id="J_OB5mxTyGGdj_19bsgD-107" value="" style="endArrow=classic;html=1;rounded=0;exitX=0.5;exitY=1;exitDx=0;exitDy=0;entryX=0.5;entryY=0;entryDx=0;entryDy=0;fillColor=#fff2cc;strokeColor=#d6b656;" edge="1" parent="1" source="J_OB5mxTyGGdj_19bsgD-85" target="J_OB5mxTyGGdj_19bsgD-86">
          <mxGeometry width="50" height="50" relative="1" as="geometry">
            <mxPoint x="370" y="1510" as="sourcePoint" />
            <mxPoint x="420" y="1460" as="targetPoint" />
            <Array as="points">
              <mxPoint x="400" y="1250" />
              <mxPoint x="300" y="1250" />
            </Array>
          </mxGeometry>
        </mxCell>
        <mxCell id="J_OB5mxTyGGdj_19bsgD-118" value="Административный отдел" style="rounded=0;whiteSpace=wrap;html=1;fillColor=#fff2cc;strokeColor=#d6b656;" vertex="1" parent="1">
          <mxGeometry x="540" y="1270" width="120" height="40" as="geometry" />
        </mxCell>
        <mxCell id="J_OB5mxTyGGdj_19bsgD-119" value="менеджер по персоналу" style="rounded=0;whiteSpace=wrap;html=1;fillColor=#fff2cc;strokeColor=#d6b656;" vertex="1" parent="1">
          <mxGeometry x="560" y="1350" width="120" height="40" as="geometry" />
        </mxCell>
        <mxCell id="J_OB5mxTyGGdj_19bsgD-122" value="" style="endArrow=classic;html=1;rounded=0;entryX=0.5;entryY=0;entryDx=0;entryDy=0;fillColor=#fff2cc;strokeColor=#d6b656;" edge="1" parent="1" target="J_OB5mxTyGGdj_19bsgD-118">
          <mxGeometry width="50" height="50" relative="1" as="geometry">
            <mxPoint x="400" y="1250" as="sourcePoint" />
            <mxPoint x="420" y="1450" as="targetPoint" />
            <Array as="points">
              <mxPoint x="600" y="1250" />
            </Array>
          </mxGeometry>
        </mxCell>
        <mxCell id="J_OB5mxTyGGdj_19bsgD-123" value="" style="endArrow=classic;html=1;rounded=0;exitX=0;exitY=1;exitDx=0;exitDy=0;entryX=0;entryY=0.5;entryDx=0;entryDy=0;fillColor=#fff2cc;strokeColor=#d6b656;" edge="1" parent="1" source="J_OB5mxTyGGdj_19bsgD-118" target="J_OB5mxTyGGdj_19bsgD-119">
          <mxGeometry width="50" height="50" relative="1" as="geometry">
            <mxPoint x="370" y="1500" as="sourcePoint" />
            <mxPoint x="420" y="1450" as="targetPoint" />
            <Array as="points">
              <mxPoint x="540" y="1370" />
            </Array>
          </mxGeometry>
        </mxCell>
        <mxCell id="J_OB5mxTyGGdj_19bsgD-126" value="Финансовый отдел" style="rounded=0;whiteSpace=wrap;html=1;fillColor=#fff2cc;strokeColor=#d6b656;" vertex="1" parent="1">
          <mxGeometry x="770" y="1270" width="120" height="40" as="geometry" />
        </mxCell>
        <mxCell id="J_OB5mxTyGGdj_19bsgD-127" value="" style="endArrow=classic;html=1;rounded=0;entryX=0.5;entryY=0;entryDx=0;entryDy=0;fillColor=#fff2cc;strokeColor=#d6b656;" edge="1" parent="1" target="J_OB5mxTyGGdj_19bsgD-126">
          <mxGeometry width="50" height="50" relative="1" as="geometry">
            <mxPoint x="600" y="1250" as="sourcePoint" />
            <mxPoint x="420" y="1450" as="targetPoint" />
            <Array as="points">
              <mxPoint x="830" y="1250" />
            </Array>
          </mxGeometry>
        </mxCell>
        <mxCell id="J_OB5mxTyGGdj_19bsgD-128" value="Главный бухгалтер" style="rounded=0;whiteSpace=wrap;html=1;fillColor=#fff2cc;strokeColor=#d6b656;" vertex="1" parent="1">
          <mxGeometry x="790" y="1350" width="120" height="40" as="geometry" />
        </mxCell>
        <mxCell id="J_OB5mxTyGGdj_19bsgD-130" value="" style="endArrow=classic;html=1;rounded=0;entryX=0;entryY=0.5;entryDx=0;entryDy=0;exitX=0;exitY=1;exitDx=0;exitDy=0;fillColor=#fff2cc;strokeColor=#d6b656;" edge="1" parent="1" source="J_OB5mxTyGGdj_19bsgD-126" target="J_OB5mxTyGGdj_19bsgD-128">
          <mxGeometry width="50" height="50" relative="1" as="geometry">
            <mxPoint x="370" y="1530" as="sourcePoint" />
            <mxPoint x="420" y="1480" as="targetPoint" />
            <Array as="points">
              <mxPoint x="770" y="1370" />
            </Array>
          </mxGeometry>
        </mxCell>
        <mxCell id="J_OB5mxTyGGdj_19bsgD-140" value="Производственная структура" style="text;html=1;align=center;verticalAlign=middle;resizable=0;points=[];autosize=1;strokeColor=none;fillColor=none;fontSize=17;" vertex="1" parent="1">
          <mxGeometry x="525" y="1190" width="250" height="30" as="geometry" />
        </mxCell>
        <mxCell id="J_OB5mxTyGGdj_19bsgD-142" value="Основная деятельность" style="rounded=0;whiteSpace=wrap;html=1;fillColor=#d5e8d4;strokeColor=#82b366;" vertex="1" parent="1">
          <mxGeometry x="300" y="1740" width="120" height="40" as="geometry" />
        </mxCell>
        <mxCell id="J_OB5mxTyGGdj_19bsgD-143" value="Директор сервиса HeadHunter" style="rounded=0;whiteSpace=wrap;html=1;fillColor=#d5e8d4;strokeColor=#82b366;" vertex="1" parent="1">
          <mxGeometry x="180" y="1820" width="120" height="40" as="geometry" />
        </mxCell>
        <mxCell id="J_OB5mxTyGGdj_19bsgD-144" value="Директор отдела разработок" style="rounded=0;whiteSpace=wrap;html=1;fillColor=#d5e8d4;strokeColor=#82b366;" vertex="1" parent="1">
          <mxGeometry x="420" y="1820" width="120" height="40" as="geometry" />
        </mxCell>
        <mxCell id="J_OB5mxTyGGdj_19bsgD-145" value="Отдел формирования проектов" style="rounded=0;whiteSpace=wrap;html=1;fillColor=#d5e8d4;strokeColor=#82b366;" vertex="1" parent="1">
          <mxGeometry x="420" y="1900" width="120" height="40" as="geometry" />
        </mxCell>
        <mxCell id="J_OB5mxTyGGdj_19bsgD-146" value="Отдел разработки" style="rounded=0;whiteSpace=wrap;html=1;fillColor=#d5e8d4;strokeColor=#82b366;" vertex="1" parent="1">
          <mxGeometry x="420" y="1980" width="120" height="40" as="geometry" />
        </mxCell>
        <mxCell id="J_OB5mxTyGGdj_19bsgD-147" value="Менеджер по оформлению проектов" style="rounded=0;whiteSpace=wrap;html=1;fillColor=#d5e8d4;strokeColor=#82b366;" vertex="1" parent="1">
          <mxGeometry x="420" y="2060" width="120" height="40" as="geometry" />
        </mxCell>
        <mxCell id="J_OB5mxTyGGdj_19bsgD-148" value="Отдел сервиса" style="rounded=0;whiteSpace=wrap;html=1;fillColor=#d5e8d4;strokeColor=#82b366;" vertex="1" parent="1">
          <mxGeometry x="180" y="1890" width="120" height="40" as="geometry" />
        </mxCell>
        <mxCell id="J_OB5mxTyGGdj_19bsgD-149" value="Менеджер по работе с компаниями-партнерами" style="rounded=0;whiteSpace=wrap;html=1;fillColor=#d5e8d4;strokeColor=#82b366;" vertex="1" parent="1">
          <mxGeometry x="180" y="1960" width="120" height="50" as="geometry" />
        </mxCell>
        <mxCell id="J_OB5mxTyGGdj_19bsgD-150" value="Менеджер по работе с клиентами" style="rounded=0;whiteSpace=wrap;html=1;fillColor=#d5e8d4;strokeColor=#82b366;" vertex="1" parent="1">
          <mxGeometry x="180" y="2040" width="120" height="50" as="geometry" />
        </mxCell>
        <mxCell id="J_OB5mxTyGGdj_19bsgD-151" value="Модерация сайта" style="rounded=0;whiteSpace=wrap;html=1;fillColor=#d5e8d4;strokeColor=#82b366;" vertex="1" parent="1">
          <mxGeometry x="180" y="2120" width="120" height="50" as="geometry" />
        </mxCell>
        <mxCell id="J_OB5mxTyGGdj_19bsgD-152" value="Технические специалисты" style="rounded=0;whiteSpace=wrap;html=1;fillColor=#d5e8d4;strokeColor=#82b366;" vertex="1" parent="1">
          <mxGeometry x="180" y="2200" width="120" height="50" as="geometry" />
        </mxCell>
        <mxCell id="J_OB5mxTyGGdj_19bsgD-153" value="" style="endArrow=classic;html=1;rounded=0;exitX=0.5;exitY=1;exitDx=0;exitDy=0;entryX=0.5;entryY=0;entryDx=0;entryDy=0;fillColor=#d5e8d4;strokeColor=#82b366;" edge="1" parent="1" source="J_OB5mxTyGGdj_19bsgD-142" target="J_OB5mxTyGGdj_19bsgD-143">
          <mxGeometry width="50" height="50" relative="1" as="geometry">
            <mxPoint x="750" y="1980" as="sourcePoint" />
            <mxPoint x="800" y="1930" as="targetPoint" />
            <Array as="points">
              <mxPoint x="360" y="1800" />
              <mxPoint x="240" y="1800" />
            </Array>
          </mxGeometry>
        </mxCell>
        <mxCell id="J_OB5mxTyGGdj_19bsgD-154" value="" style="endArrow=classic;html=1;rounded=0;exitX=0.5;exitY=1;exitDx=0;exitDy=0;entryX=0.5;entryY=0;entryDx=0;entryDy=0;fillColor=#d5e8d4;strokeColor=#82b366;" edge="1" parent="1" source="J_OB5mxTyGGdj_19bsgD-142" target="J_OB5mxTyGGdj_19bsgD-144">
          <mxGeometry width="50" height="50" relative="1" as="geometry">
            <mxPoint x="750" y="1980" as="sourcePoint" />
            <mxPoint x="800" y="1930" as="targetPoint" />
            <Array as="points">
              <mxPoint x="360" y="1800" />
              <mxPoint x="480" y="1800" />
            </Array>
          </mxGeometry>
        </mxCell>
        <mxCell id="J_OB5mxTyGGdj_19bsgD-155" value="" style="endArrow=classic;html=1;rounded=0;exitX=0;exitY=0.5;exitDx=0;exitDy=0;entryX=0;entryY=0.5;entryDx=0;entryDy=0;fillColor=#d5e8d4;strokeColor=#82b366;" edge="1" parent="1" source="J_OB5mxTyGGdj_19bsgD-144" target="J_OB5mxTyGGdj_19bsgD-145">
          <mxGeometry width="50" height="50" relative="1" as="geometry">
            <mxPoint x="750" y="1980" as="sourcePoint" />
            <mxPoint x="800" y="1930" as="targetPoint" />
            <Array as="points">
              <mxPoint x="400" y="1840" />
              <mxPoint x="400" y="1920" />
            </Array>
          </mxGeometry>
        </mxCell>
        <mxCell id="J_OB5mxTyGGdj_19bsgD-156" value="" style="endArrow=classic;html=1;rounded=0;entryX=0;entryY=0.5;entryDx=0;entryDy=0;fillColor=#d5e8d4;strokeColor=#82b366;" edge="1" parent="1" target="J_OB5mxTyGGdj_19bsgD-146">
          <mxGeometry width="50" height="50" relative="1" as="geometry">
            <mxPoint x="400" y="1920" as="sourcePoint" />
            <mxPoint x="800" y="1930" as="targetPoint" />
            <Array as="points">
              <mxPoint x="400" y="2000" />
            </Array>
          </mxGeometry>
        </mxCell>
        <mxCell id="J_OB5mxTyGGdj_19bsgD-157" value="" style="endArrow=classic;html=1;rounded=0;entryX=0;entryY=0.5;entryDx=0;entryDy=0;fillColor=#d5e8d4;strokeColor=#82b366;" edge="1" parent="1" target="J_OB5mxTyGGdj_19bsgD-147">
          <mxGeometry width="50" height="50" relative="1" as="geometry">
            <mxPoint x="400" y="2000" as="sourcePoint" />
            <mxPoint x="800" y="1930" as="targetPoint" />
            <Array as="points">
              <mxPoint x="400" y="2080" />
            </Array>
          </mxGeometry>
        </mxCell>
        <mxCell id="J_OB5mxTyGGdj_19bsgD-158" value="" style="endArrow=classic;html=1;rounded=0;exitX=0;exitY=0.5;exitDx=0;exitDy=0;entryX=0;entryY=0.5;entryDx=0;entryDy=0;fillColor=#d5e8d4;strokeColor=#82b366;" edge="1" parent="1" source="J_OB5mxTyGGdj_19bsgD-143" target="J_OB5mxTyGGdj_19bsgD-148">
          <mxGeometry width="50" height="50" relative="1" as="geometry">
            <mxPoint x="750" y="1980" as="sourcePoint" />
            <mxPoint x="800" y="1930" as="targetPoint" />
            <Array as="points">
              <mxPoint x="160" y="1840" />
              <mxPoint x="160" y="1910" />
            </Array>
          </mxGeometry>
        </mxCell>
        <mxCell id="J_OB5mxTyGGdj_19bsgD-159" value="" style="endArrow=classic;html=1;rounded=0;entryX=0;entryY=0.5;entryDx=0;entryDy=0;fillColor=#d5e8d4;strokeColor=#82b366;" edge="1" parent="1" target="J_OB5mxTyGGdj_19bsgD-149">
          <mxGeometry width="50" height="50" relative="1" as="geometry">
            <mxPoint x="160" y="1910" as="sourcePoint" />
            <mxPoint x="800" y="1930" as="targetPoint" />
            <Array as="points">
              <mxPoint x="160" y="1985" />
            </Array>
          </mxGeometry>
        </mxCell>
        <mxCell id="J_OB5mxTyGGdj_19bsgD-160" value="" style="endArrow=classic;html=1;rounded=0;entryX=0;entryY=0.5;entryDx=0;entryDy=0;fillColor=#d5e8d4;strokeColor=#82b366;" edge="1" parent="1" target="J_OB5mxTyGGdj_19bsgD-150">
          <mxGeometry width="50" height="50" relative="1" as="geometry">
            <mxPoint x="160" y="1980" as="sourcePoint" />
            <mxPoint x="800" y="1930" as="targetPoint" />
            <Array as="points">
              <mxPoint x="160" y="2065" />
            </Array>
          </mxGeometry>
        </mxCell>
        <mxCell id="J_OB5mxTyGGdj_19bsgD-161" value="" style="endArrow=classic;html=1;rounded=0;entryX=0;entryY=0.5;entryDx=0;entryDy=0;fillColor=#d5e8d4;strokeColor=#82b366;" edge="1" parent="1" target="J_OB5mxTyGGdj_19bsgD-151">
          <mxGeometry width="50" height="50" relative="1" as="geometry">
            <mxPoint x="160" y="2060" as="sourcePoint" />
            <mxPoint x="800" y="1930" as="targetPoint" />
            <Array as="points">
              <mxPoint x="160" y="2145" />
            </Array>
          </mxGeometry>
        </mxCell>
        <mxCell id="J_OB5mxTyGGdj_19bsgD-162" value="" style="endArrow=classic;html=1;rounded=0;entryX=0;entryY=0.5;entryDx=0;entryDy=0;fillColor=#d5e8d4;strokeColor=#82b366;" edge="1" parent="1" target="J_OB5mxTyGGdj_19bsgD-152">
          <mxGeometry width="50" height="50" relative="1" as="geometry">
            <mxPoint x="160" y="2140" as="sourcePoint" />
            <mxPoint x="800" y="1930" as="targetPoint" />
            <Array as="points">
              <mxPoint x="160" y="2225" />
            </Array>
          </mxGeometry>
        </mxCell>
        <mxCell id="J_OB5mxTyGGdj_19bsgD-197" value="Технологическая структура" style="text;html=1;align=center;verticalAlign=middle;resizable=0;points=[];autosize=1;strokeColor=none;fillColor=none;fontSize=17;" vertex="1" parent="1">
          <mxGeometry x="450" y="1720" width="230" height="30" as="geometry" />
        </mxCell>
        <mxCell id="J_OB5mxTyGGdj_19bsgD-198" value="Хозяйственный отдел" style="rounded=0;whiteSpace=wrap;html=1;fillColor=#008a00;fontColor=#ffffff;strokeColor=#005700;" vertex="1" parent="1">
          <mxGeometry x="490" y="2338" width="120" height="40" as="geometry" />
        </mxCell>
        <mxCell id="J_OB5mxTyGGdj_19bsgD-199" value="Охранник" style="rounded=0;whiteSpace=wrap;html=1;fillColor=#008a00;fontColor=#ffffff;strokeColor=#005700;" vertex="1" parent="1">
          <mxGeometry x="350" y="2418" width="120" height="40" as="geometry" />
        </mxCell>
        <mxCell id="J_OB5mxTyGGdj_19bsgD-200" value="Уборщик" style="rounded=0;whiteSpace=wrap;html=1;fillColor=#008a00;fontColor=#ffffff;strokeColor=#005700;" vertex="1" parent="1">
          <mxGeometry x="490" y="2418" width="120" height="40" as="geometry" />
        </mxCell>
        <mxCell id="J_OB5mxTyGGdj_19bsgD-201" value="" style="endArrow=classic;html=1;rounded=0;exitX=0;exitY=1;exitDx=0;exitDy=0;entryX=0.5;entryY=0;entryDx=0;entryDy=0;fillColor=#008a00;strokeColor=#005700;" edge="1" parent="1" source="J_OB5mxTyGGdj_19bsgD-198" target="J_OB5mxTyGGdj_19bsgD-199">
          <mxGeometry width="50" height="50" relative="1" as="geometry">
            <mxPoint x="610" y="2588" as="sourcePoint" />
            <mxPoint x="660" y="2538" as="targetPoint" />
            <Array as="points">
              <mxPoint x="550" y="2378" />
              <mxPoint x="550" y="2400" />
              <mxPoint x="410" y="2400" />
            </Array>
          </mxGeometry>
        </mxCell>
        <mxCell id="J_OB5mxTyGGdj_19bsgD-202" value="" style="endArrow=classic;html=1;rounded=0;entryX=0.5;entryY=0;entryDx=0;entryDy=0;fillColor=#008a00;strokeColor=#005700;" edge="1" parent="1" target="J_OB5mxTyGGdj_19bsgD-200">
          <mxGeometry width="50" height="50" relative="1" as="geometry">
            <mxPoint x="550" y="2380" as="sourcePoint" />
            <mxPoint x="660" y="2538" as="targetPoint" />
            <Array as="points" />
          </mxGeometry>
        </mxCell>
        <mxCell id="J_OB5mxTyGGdj_19bsgD-203" value="Техник" style="rounded=0;whiteSpace=wrap;html=1;fillColor=#008a00;fontColor=#ffffff;strokeColor=#005700;" vertex="1" parent="1">
          <mxGeometry x="640" y="2418" width="120" height="40" as="geometry" />
        </mxCell>
        <mxCell id="J_OB5mxTyGGdj_19bsgD-204" value="" style="endArrow=classic;html=1;rounded=0;entryX=0.5;entryY=0;entryDx=0;entryDy=0;fillColor=#008a00;strokeColor=#005700;" edge="1" parent="1" target="J_OB5mxTyGGdj_19bsgD-203">
          <mxGeometry width="50" height="50" relative="1" as="geometry">
            <mxPoint x="550" y="2400" as="sourcePoint" />
            <mxPoint x="660" y="2538" as="targetPoint" />
            <Array as="points">
              <mxPoint x="700" y="2400" />
            </Array>
          </mxGeometry>
        </mxCell>
        <mxCell id="J_OB5mxTyGGdj_19bsgD-205" value="Хозяйственная структура" style="text;html=1;align=center;verticalAlign=middle;resizable=0;points=[];autosize=1;strokeColor=none;fillColor=none;fontSize=17;" vertex="1" parent="1">
          <mxGeometry x="605" y="2300" width="220" height="30" as="geometry" />
        </mxCell>
      </root>
    </mxGraphModel>
  </diagram>
</mxfile>
